<svg width="141" height="24" viewBox="0 0 141 24" fill="none" xmlns="http://www.w3.org/2000/svg">
<rect width="24" height="24" rx="2" fill="#00B67A"/>
<path d="M11.5 3L13.7426 9.87539L21 9.87539L15.1287 14.1246L17.3713 21L11.5 16.7508L5.62868 21L7.87132 14.1246L2 9.87539L9.25735 9.87539L11.5 3Z" fill="white"/>
<rect x="29" width="24" height="24" rx="2" fill="#00B67A"/>
<path d="M41.5 3L43.7426 9.87539L51 9.87539L45.1287 14.1246L47.3713 21L41.5 16.7508L35.6287 21L37.8713 14.1246L32 9.87539L39.2574 9.87539L41.5 3Z" fill="white"/>
<rect x="58" width="25" height="24" rx="2" fill="#00B67A"/>
<path d="M70.5 3L72.7426 9.87539L80 9.87539L74.1287 14.1246L76.3713 21L70.5 16.7508L64.6287 21L66.8713 14.1246L61 9.87539L68.2574 9.87539L70.5 3Z" fill="white"/>
<rect x="88" width="24" height="24" rx="2" fill="#00B67A"/>
<path d="M100.5 3L102.743 9.87539L110 9.87539L104.129 14.1246L106.371 21L100.5 16.7508L94.6287 21L96.8713 14.1246L91 9.87539L98.2574 9.87539L100.5 3Z" fill="white"/>
<rect x="117" width="24" height="24" rx="2" fill="#00B67A"/>
<path d="M129.5 3L131.743 9.87539L139 9.87539L133.129 14.1246L135.371 21L129.5 16.7508L123.629 21L125.871 14.1246L120 9.87539L127.257 9.87539L129.5 3Z" fill="white"/>
</svg>
