<svg width="34" height="34" viewBox="0 0 34 34" fill="none" xmlns="http://www.w3.org/2000/svg">
<rect width="34" height="34" rx="6" fill="#2F2CD6"/>
<path d="M22.6013 22.6V18.498C22.6013 16.482 22.1673 14.942 19.8153 14.942C18.6813 14.942 17.9253 15.558 17.6173 16.146H17.5893V15.124H15.3633V22.6H17.6873V18.89C17.6873 17.91 17.8693 16.972 19.0733 16.972C20.2633 16.972 20.2773 18.078 20.2773 18.946V22.586H22.6013V22.6Z" fill="white"/>
<path d="M11.582 15.124H13.906V22.6H11.582V15.124Z" fill="white"/>
<path d="M12.7444 11.4C12.0024 11.4 11.4004 12.002 11.4004 12.744C11.4004 13.486 12.0024 14.102 12.7444 14.102C13.4864 14.102 14.0884 13.486 14.0884 12.744C14.0884 12.002 13.4864 11.4 12.7444 11.4Z" fill="white"/>
</svg>
