<svg width="24" height="24" viewBox="0 0 24 24" fill="none" xmlns="http://www.w3.org/2000/svg">
<path d="M12 13C12.55 13 13.021 12.804 13.413 12.412C13.805 12.02 14.0007 11.5493 14 11C14 10.45 13.804 9.979 13.412 9.587C13.02 9.195 12.5493 8.99933 12 9C11.45 9 10.979 9.196 10.587 9.588C10.195 9.98 9.99933 10.4507 10 11C10 11.55 10.196 12.021 10.588 12.413C10.98 12.805 11.4507 13.0007 12 13ZM12 20.35C14.0333 18.4833 15.5417 16.7873 16.525 15.262C17.5083 13.7367 18 12.3827 18 11.2C18 9.38333 17.4207 7.896 16.262 6.738C15.1033 5.58 13.6827 5.00067 12 5C10.3167 5 8.89567 5.57933 7.737 6.738C6.57833 7.89667 5.99933 9.384 6 11.2C6 12.3833 6.49167 13.7377 7.475 15.263C8.45833 16.7883 9.96667 18.484 12 20.35ZM12 23C9.31667 20.7167 7.31267 18.596 5.988 16.638C4.66333 14.68 4.00067 12.8673 4 11.2C4 8.7 4.80433 6.70833 6.413 5.225C8.02167 3.74167 9.884 3 12 3C14.1167 3 15.9793 3.74167 17.588 5.225C19.1967 6.70833 20.0007 8.7 20 11.2C20 12.8667 19.3373 14.6793 18.012 16.638C16.6867 18.5967 14.6827 20.7173 12 23Z" fill="#040524"/>
</svg>
