<svg width="18" height="18" viewBox="0 0 18 18" fill="none" xmlns="http://www.w3.org/2000/svg">
<path fill-rule="evenodd" clip-rule="evenodd" d="M8.58109 2.37838C5.15543 2.37838 2.37838 5.15543 2.37838 8.58109C2.37838 12.0067 5.15543 14.7838 8.58109 14.7838C12.0067 14.7838 14.7838 12.0067 14.7838 8.58109C14.7838 5.15543 12.0067 2.37838 8.58109 2.37838ZM1 8.58109C1 4.39417 4.39417 1 8.58109 1C12.768 1 16.1622 4.39417 16.1622 8.58109C16.1622 10.4264 15.5029 12.1177 14.407 13.4323L17.7981 16.8235C18.0673 17.0927 18.0673 17.529 17.7981 17.7981C17.529 18.0673 17.0927 18.0673 16.8235 17.7981L13.4323 14.407C12.1177 15.5029 10.4264 16.1622 8.58109 16.1622C4.39417 16.1622 1 12.768 1 8.58109Z" fill="#040524"/>
</svg>
