<svg width="334" height="41" viewBox="0 0 334 41" fill="none" xmlns="http://www.w3.org/2000/svg">
<path d="M26.5006 6.16775C27.0115 6.16775 27.2669 6.42833 27.2669 6.94951V10.4023C27.2669 10.9234 27.0115 11.184 26.5006 11.184H8.74838C8.04596 11.184 7.59896 11.3795 7.27967 11.7052C6.96039 12.0309 6.83267 12.5521 6.83267 13.2036V14.4414C6.83267 15.8094 7.47124 16.4609 8.68453 16.4609H21.9668C24.0102 16.4609 25.5428 16.9821 26.6283 18.0896C27.65 19.1319 28.1609 20.6954 28.1609 22.715V25.5814C28.1609 27.3404 27.65 28.7736 26.6283 29.816C25.6066 30.9234 24.0102 31.4446 21.9029 31.4446H2.29883C1.72412 31.4446 1.46869 31.184 1.46869 30.6629V27.2101C1.46869 26.6889 1.72412 26.4283 2.29883 26.4283H20.8812C21.5836 26.4283 22.0306 26.2329 22.3499 25.9072C22.6692 25.5814 22.7969 25.0603 22.7969 24.4088V22.9104C22.7969 21.5423 22.1583 20.8909 20.9451 20.8909H7.66281C5.61939 20.8909 4.08682 20.3697 3.00126 19.2622C1.97954 18.2199 1.46869 16.6563 1.46869 14.6368V11.9658C1.46869 10.2068 1.97954 8.77361 3.00126 7.73126C4.02297 6.62377 5.61939 6.1026 7.72667 6.1026H26.5006V6.16775Z" fill="#01017B"/>
<path d="M58.5568 11.6401C60.1533 11.6401 61.4943 11.7704 62.516 12.031C63.6015 12.2915 64.4317 12.7476 65.1341 13.3339C65.7727 13.9202 66.2835 14.702 66.539 15.614C66.7944 16.5261 66.9221 17.6336 66.9221 18.9365V30.6629C66.9221 31.184 66.6667 31.4446 66.1558 31.4446H62.7075C62.1967 31.4446 61.9413 31.184 61.9413 30.6629V20.1743C61.9413 19.4577 61.8774 18.8062 61.8135 18.285C61.7497 17.7639 61.5581 17.373 61.3027 17.0472C61.0473 16.7215 60.6641 16.5261 60.2171 16.3958C59.7701 16.2655 59.1316 16.2003 58.3653 16.2003H52.1073V30.6629C52.1073 31.184 51.8519 31.4446 51.2771 31.4446H47.8289C47.318 31.4446 47.0626 31.184 47.0626 30.6629V16.2003H41.06C40.2938 16.2003 39.6552 16.2655 39.2082 16.3958C38.6973 16.5261 38.3142 16.7215 37.9949 17.0472C37.6756 17.373 37.484 17.7639 37.3563 18.285C37.2286 18.8062 37.1648 19.4577 37.1648 20.1743V30.6629C37.1648 31.184 36.9093 31.4446 36.3985 31.4446H32.9502C32.3755 31.4446 32.1201 31.184 32.1201 30.6629V18.9365C32.1201 17.6336 32.2478 16.5261 32.5671 15.614C32.8863 14.702 33.3333 13.9202 33.9719 13.3339C34.6105 12.7476 35.5045 12.2915 36.59 12.031C37.6756 11.7704 39.0166 11.6401 40.613 11.6401H58.5568V11.6401Z" fill="#01017B"/>
<path d="M87.1008 11.6401C88.6973 11.6401 90.0383 11.7704 91.1238 12.0309C92.2094 12.2915 93.1034 12.7476 93.742 13.3339C94.3805 13.9202 94.8275 14.7019 95.1468 15.614C95.4661 16.5261 95.5938 17.6335 95.5938 18.9365V28.5782C95.5938 29.1645 95.53 29.6205 95.4661 30.0114C95.4022 30.4023 95.2107 30.6629 95.0191 30.9234C94.8275 31.1189 94.5721 31.3143 94.2528 31.3795C93.9335 31.4446 93.4865 31.5098 92.9757 31.5098H75.9897C74.968 31.5098 74.074 31.3795 73.3716 31.184C72.6692 30.9886 72.0945 30.6629 71.7113 30.272C71.2643 29.8811 71.0089 29.3599 70.8173 28.7085C70.6257 28.057 70.5619 27.2752 70.5619 26.3632V24.6042C70.5619 23.8876 70.6257 23.171 70.8173 22.5847C71.0089 21.9984 71.2643 21.4772 71.7113 21.0863C72.1583 20.6954 72.6692 20.3697 73.3716 20.1743C74.074 19.9788 74.968 19.8485 75.9897 19.8485H90.4214V19.1319C90.4214 18.5456 90.3575 18.0896 90.2298 17.6335C90.1021 17.2427 89.9105 16.9169 89.6551 16.6563C89.3997 16.3958 88.9527 16.2003 88.5057 16.07C87.9948 15.9397 87.3563 15.8746 86.59 15.8746H71.7752C71.3282 15.8746 71.1366 15.6791 71.1366 15.2231V12.1612C71.1366 11.7052 71.3282 11.5098 71.7752 11.5098H87.1008V11.6401ZM89.3997 27.5358C89.7828 27.5358 90.0383 27.4707 90.166 27.2752C90.2937 27.0798 90.4214 26.7541 90.4214 26.298V23.1059H77.4584C76.756 23.1059 76.1813 23.2362 75.9259 23.5619C75.6066 23.8876 75.4789 24.2785 75.4789 24.8648V25.6466C75.4789 26.298 75.6066 26.7541 75.9259 27.0798C76.2452 27.4055 76.756 27.5358 77.4584 27.5358H89.3997V27.5358Z" fill="#01017B"/>
<path d="M117.561 11.6401C118.008 11.6401 118.199 11.8355 118.199 12.2915V15.3534C118.199 15.8095 118.008 16.0049 117.561 16.0049H108.11C107.344 16.0049 106.705 16.07 106.258 16.2003C105.747 16.3306 105.364 16.5261 105.045 16.8518C104.725 17.1775 104.534 17.5684 104.406 18.0896C104.278 18.6108 104.215 19.2622 104.215 19.9788V30.728C104.215 31.2492 103.959 31.5098 103.448 31.5098H100C99.4253 31.5098 99.1699 31.2492 99.1699 30.728V19.0016C99.1699 17.6987 99.2976 16.5912 99.6169 15.6792C99.9361 14.7671 100.383 13.9854 101.022 13.399C101.66 12.8127 102.554 12.3567 103.64 12.0961C104.725 11.8355 106.066 11.7052 107.663 11.7052H117.561V11.6401Z" fill="#01017B"/>
<path d="M124.074 11.6401V6.88436C124.074 6.36319 124.329 6.1026 124.84 6.1026H128.352C128.863 6.1026 129.119 6.36319 129.119 6.88436V11.6401H135.313C135.76 11.6401 135.951 11.8355 135.951 12.2915V15.2231C135.951 15.6791 135.76 15.8746 135.313 15.8746H129.119V24.2785C129.119 25.3208 129.31 26.0375 129.693 26.4935C130.077 26.9495 130.907 27.2101 132.056 27.2101H135.504C135.951 27.2101 136.143 27.4055 136.143 27.8616V30.7932C136.143 31.2492 135.951 31.4446 135.504 31.4446H131.226C129.821 31.4446 128.608 31.3143 127.714 31.0537C126.82 30.7932 126.054 30.3371 125.479 29.816C124.904 29.2948 124.521 28.513 124.329 27.601C124.138 26.6889 124.01 25.5814 124.01 24.3436V15.8746H120.626C120.179 15.8746 119.987 15.6791 119.987 15.2231V12.2915C119.987 11.8355 120.179 11.6401 120.626 11.6401H124.074Z" fill="#01017B"/>
<path d="M142.656 6.16777C142.912 6.16777 143.04 6.29806 143.167 6.62379L148.914 26.0375C148.914 26.2329 149.042 26.2981 149.17 26.2981H149.361C149.489 26.2981 149.617 26.2329 149.617 26.0375L155.364 8.18731C155.619 7.34041 155.939 6.81923 156.386 6.4935C156.833 6.23292 157.344 6.03748 157.982 6.03748H161.494C162.26 6.03748 162.899 6.16777 163.282 6.4935C163.665 6.81923 164.048 7.34041 164.304 8.12217L170.179 25.9723C170.243 26.1678 170.306 26.2329 170.434 26.2329H170.626C170.753 26.2329 170.881 26.1678 170.881 25.9723L176.501 6.55865C176.564 6.36321 176.628 6.23292 176.756 6.16777C176.884 6.10262 176.948 6.10262 177.075 6.10262H181.865C182.056 6.10262 182.184 6.16777 182.184 6.36321C182.248 6.55865 182.184 6.75409 182.12 6.94953L175.287 28.6433C174.968 29.7508 174.585 30.4674 174.202 30.8583C173.819 31.2492 173.244 31.4446 172.541 31.4446H168.391C167.688 31.4446 167.177 31.2492 166.794 30.8583C166.411 30.4674 166.028 29.7508 165.709 28.7085L160.217 11.5749C160.217 11.3795 160.089 11.3143 159.962 11.3143H159.834C159.642 11.3143 159.579 11.3795 159.579 11.5749L153.895 28.7085C153.512 29.7508 153.193 30.4674 152.81 30.8583C152.427 31.2492 151.852 31.4446 151.213 31.4446H147.19C146.807 31.4446 146.424 31.3795 146.169 31.3143C145.849 31.2492 145.594 31.1189 145.402 30.9235C145.147 30.728 144.955 30.4674 144.764 30.0766C144.572 29.6857 144.444 29.2297 144.253 28.7085L137.612 7.01467C137.548 6.75409 137.548 6.55865 137.548 6.42836C137.612 6.29806 137.676 6.16777 137.867 6.16777H142.656Z" fill="#808080"/>
<path d="M201.213 11.6401C202.81 11.6401 204.151 11.7704 205.236 12.031C206.322 12.2915 207.216 12.7476 207.854 13.3339C208.493 13.9202 208.94 14.702 209.259 15.614C209.515 16.5261 209.706 17.6336 209.706 18.9365V24.1482C209.706 25.4511 209.579 26.5586 209.259 27.4707C209.004 28.3827 208.493 29.1645 207.854 29.7508C207.216 30.3371 206.322 30.7932 205.236 31.0538C204.151 31.3143 202.81 31.4446 201.213 31.4446H191.188C189.591 31.4446 188.25 31.3143 187.165 31.0538C186.079 30.7932 185.249 30.3371 184.61 29.7508C183.972 29.1645 183.525 28.3827 183.206 27.4707C182.95 26.5586 182.759 25.4511 182.759 24.1482V18.9365C182.759 17.6336 182.886 16.5261 183.206 15.614C183.461 14.702 183.972 13.9202 184.61 13.3339C185.249 12.7476 186.143 12.2915 187.165 12.031C188.25 11.7704 189.591 11.6401 191.188 11.6401H201.213ZM187.803 23.3013C187.803 24.0831 187.867 24.7345 187.995 25.1906C188.123 25.7117 188.314 26.1026 188.633 26.4283C188.953 26.7541 189.336 26.9495 189.847 27.0798C190.358 27.2101 190.996 27.2753 191.699 27.2753H200.702C201.469 27.2753 202.107 27.2101 202.618 27.0798C203.129 26.9495 203.512 26.7541 203.831 26.4283C204.151 26.1026 204.342 25.7117 204.47 25.1906C204.598 24.6694 204.662 24.0179 204.662 23.3013V19.8485C204.662 19.1319 204.598 18.4805 204.47 17.9593C204.342 17.4381 204.151 17.0472 203.831 16.7215C203.512 16.3958 203.129 16.2003 202.618 16.07C202.107 15.9397 201.469 15.8746 200.702 15.8746H191.699C190.932 15.8746 190.294 15.9397 189.847 16.07C189.336 16.2003 188.953 16.3958 188.633 16.7215C188.314 17.0472 188.123 17.4381 187.995 17.9593C187.867 18.4805 187.803 19.0668 187.803 19.8485V23.3013Z" fill="#808080"/>
<path d="M232.056 11.6401C232.503 11.6401 232.695 11.8355 232.695 12.2915V15.3534C232.695 15.8095 232.503 16.0049 232.056 16.0049H222.605C221.839 16.0049 221.201 16.07 220.754 16.2003C220.243 16.3306 219.86 16.5261 219.54 16.8518C219.221 17.1775 219.029 17.5684 218.902 18.0896C218.774 18.6108 218.71 19.2622 218.71 19.9788V30.728C218.71 31.2492 218.455 31.5098 217.944 31.5098H214.496C213.921 31.5098 213.665 31.2492 213.665 30.728V19.0016C213.665 17.6987 213.793 16.5912 214.112 15.6792C214.368 14.7671 214.879 13.9854 215.517 13.399C216.156 12.8127 217.05 12.3567 218.072 12.0961C219.157 11.8355 220.498 11.7052 222.095 11.7052H232.056V11.6401Z" fill="#808080"/>
<path d="M239.783 4.34366C240.294 4.34366 240.549 4.60424 240.549 5.12542V19.4577H247.063C247.573 19.4577 247.957 19.4577 248.34 19.3925C248.659 19.3274 248.978 19.2622 249.234 19.1971C249.489 19.0668 249.745 18.9365 249.936 18.7411C250.128 18.5456 250.383 18.285 250.575 17.9593L254.534 12.2264C254.662 12.031 254.853 11.8355 254.981 11.7704C255.109 11.7052 255.364 11.6401 255.619 11.6401H259.642C259.898 11.6401 260.089 11.7704 260.153 11.9658C260.217 12.1612 260.153 12.4218 260.026 12.6173L255.428 19.0016C254.725 19.9788 253.959 20.7606 253.257 21.3469C254.215 21.9332 255.045 22.6498 255.747 23.6922L260.792 30.6629C260.92 30.8583 260.983 31.0538 260.856 31.2492C260.792 31.4446 260.6 31.5749 260.345 31.5749H256.386C256.066 31.5749 255.875 31.5098 255.683 31.4446C255.556 31.3795 255.428 31.2492 255.236 31.0538L250.894 24.9951C250.447 24.4088 250 24.0179 249.553 23.8225C249.042 23.627 248.34 23.4968 247.382 23.4968H240.549V30.7932C240.549 31.3143 240.294 31.5749 239.783 31.5749H236.271C235.696 31.5749 235.441 31.3143 235.441 30.7932V5.19056C235.441 4.66939 235.696 4.4088 236.271 4.4088H239.783V4.34366Z" fill="#808080"/>
<path d="M267.944 4.2785C268.455 4.2785 268.71 4.53909 268.71 5.06026V8.51303C268.71 9.09935 268.455 9.35994 267.944 9.35994H264.496C263.921 9.35994 263.665 9.09935 263.665 8.51303V5.12541C263.665 4.60424 263.921 4.34365 264.496 4.34365H267.944V4.2785ZM267.944 11.6401C268.455 11.6401 268.71 11.9007 268.71 12.487V30.728C268.71 31.2492 268.455 31.5098 267.944 31.5098H264.496C263.985 31.5098 263.729 31.2492 263.729 30.728V12.487C263.729 11.9007 263.985 11.6401 264.496 11.6401H267.944V11.6401Z" fill="#808080"/>
<path d="M291.699 11.6401C293.295 11.6401 294.636 11.7704 295.722 12.031C296.807 12.2915 297.701 12.7476 298.34 13.3339C298.978 13.9202 299.425 14.702 299.745 15.614C300 16.5261 300.192 17.6336 300.192 18.9365V30.6629C300.192 31.184 299.936 31.4446 299.425 31.4446H295.977C295.466 31.4446 295.211 31.184 295.211 30.6629V20.1743C295.211 19.4577 295.147 18.8062 295.083 18.285C295.019 17.7639 294.828 17.373 294.508 17.0472C294.253 16.7215 293.87 16.5261 293.423 16.3958C292.976 16.2655 292.337 16.2003 291.571 16.2003H282.12C281.354 16.2003 280.715 16.2655 280.268 16.3958C279.757 16.5261 279.374 16.7215 279.055 17.0472C278.736 17.373 278.544 17.7639 278.416 18.285C278.289 18.8062 278.225 19.4577 278.225 20.1743V30.6629C278.225 31.184 277.969 31.4446 277.458 31.4446H273.946C273.372 31.4446 273.116 31.184 273.116 30.6629V18.9365C273.116 17.6336 273.244 16.5261 273.563 15.614C273.819 14.702 274.329 13.9202 274.968 13.3339C275.607 12.7476 276.501 12.2915 277.522 12.031C278.608 11.7704 279.949 11.6401 281.545 11.6401H291.699V11.6401Z" fill="#808080"/>
<path d="M322.542 11.6401C324.138 11.6401 325.479 11.7704 326.564 12.031C327.65 12.2915 328.48 12.7476 329.183 13.3339C329.821 13.9202 330.332 14.6368 330.587 15.614C330.843 16.5261 330.971 17.6336 330.971 18.9365V32.0961C330.971 33.399 330.843 34.5717 330.587 35.4837C330.332 36.3958 329.821 37.1775 329.183 37.7639C328.544 38.3502 327.65 38.8062 326.564 39.0668C325.479 39.3274 324.138 39.4577 322.542 39.4577H305.875C305.428 39.4577 305.236 39.2622 305.236 38.8062V35.7443C305.236 35.2883 305.428 35.0928 305.875 35.0928H322.095C322.861 35.0928 323.499 35.0277 324.01 34.8974C324.521 34.7671 324.904 34.5717 325.223 34.2459C325.543 33.9202 325.734 33.5293 325.862 33.0082C325.99 32.487 326.054 31.8355 326.054 31.0538V30.1417H312.708C311.111 30.1417 309.77 30.0114 308.685 29.7508C307.599 29.4902 306.769 29.0342 306.13 28.4479C305.492 27.8616 305.045 27.0798 304.725 26.1678C304.47 25.2557 304.278 24.0831 304.278 22.7801V19.0016C304.278 17.6987 304.406 16.5261 304.725 15.614C304.981 14.702 305.492 13.9202 306.13 13.3339C306.769 12.7476 307.663 12.2915 308.685 12.031C309.77 11.7704 311.111 11.6401 312.708 11.6401H322.542ZM309.259 22.7801C309.259 23.4316 309.323 23.9528 309.451 24.3437C309.579 24.7345 309.77 25.1254 310.089 25.386C310.409 25.6466 310.792 25.842 311.303 25.9723C311.814 26.1026 312.452 26.1678 313.155 26.1678H325.99V19.3925C325.99 18.0896 325.734 17.2427 325.223 16.6564C324.713 16.1352 323.627 15.8746 322.095 15.8746H313.155C312.388 15.8746 311.75 15.9397 311.303 16.07C310.792 16.2003 310.409 16.3958 310.089 16.6564C309.77 16.9169 309.579 17.3078 309.451 17.6987C309.323 18.1547 309.259 18.6759 309.259 19.2622V22.7801V22.7801Z" fill="#808080"/>
</svg>
