<svg width="334" height="41" viewBox="0 0 334 41" fill="none" xmlns="http://www.w3.org/2000/svg">
<path d="M26.5007 6.16769C27.0116 6.16769 27.267 6.42827 27.267 6.94945V10.4022C27.267 10.9233 27.0116 11.1839 26.5007 11.1839H8.74844C8.04602 11.1839 7.59902 11.3794 7.27973 11.7051C6.96045 12.0308 6.83273 12.552 6.83273 13.2035V14.4413C6.83273 15.8093 7.4713 16.4608 8.68459 16.4608H21.9669C24.0103 16.4608 25.5429 16.982 26.6284 18.0895C27.6501 19.1318 28.161 20.6953 28.161 22.7149V25.5813C28.161 27.3403 27.6501 28.7735 26.6284 29.8159C25.6067 30.9233 24.0103 31.4445 21.903 31.4445H2.29889C1.72418 31.4445 1.46875 31.1839 1.46875 30.6628V27.21C1.46875 26.6888 1.72418 26.4282 2.29889 26.4282H20.8813C21.5837 26.4282 22.0307 26.2328 22.35 25.9071C22.6693 25.5813 22.797 25.0602 22.797 24.4087V22.9103C22.797 21.5422 22.1584 20.8908 20.9452 20.8908H7.66287C5.61945 20.8908 4.08688 20.3696 3.00132 19.2621C1.9796 18.2198 1.46875 16.6562 1.46875 14.6367V11.9657C1.46875 10.2067 1.9796 8.77355 3.00132 7.7312C4.02303 6.62371 5.61945 6.10254 7.72673 6.10254H26.5007V6.16769Z" fill="white"/>
<path d="M58.5568 11.6401C60.1533 11.6401 61.4943 11.7704 62.516 12.031C63.6015 12.2915 64.4317 12.7476 65.1341 13.3339C65.7727 13.9202 66.2835 14.702 66.539 15.614C66.7944 16.5261 66.9221 17.6336 66.9221 18.9365V30.6629C66.9221 31.184 66.6667 31.4446 66.1558 31.4446H62.7075C62.1967 31.4446 61.9413 31.184 61.9413 30.6629V20.1743C61.9413 19.4577 61.8774 18.8062 61.8135 18.285C61.7497 17.7639 61.5581 17.373 61.3027 17.0472C61.0473 16.7215 60.6641 16.5261 60.2171 16.3958C59.7701 16.2655 59.1316 16.2003 58.3653 16.2003H52.1073V30.6629C52.1073 31.184 51.8519 31.4446 51.2771 31.4446H47.8289C47.318 31.4446 47.0626 31.184 47.0626 30.6629V16.2003H41.06C40.2938 16.2003 39.6552 16.2655 39.2082 16.3958C38.6973 16.5261 38.3142 16.7215 37.9949 17.0472C37.6756 17.373 37.484 17.7639 37.3563 18.285C37.2286 18.8062 37.1648 19.4577 37.1648 20.1743V30.6629C37.1648 31.184 36.9093 31.4446 36.3985 31.4446H32.9502C32.3755 31.4446 32.1201 31.184 32.1201 30.6629V18.9365C32.1201 17.6336 32.2478 16.5261 32.5671 15.614C32.8863 14.702 33.3333 13.9202 33.9719 13.3339C34.6105 12.7476 35.5045 12.2915 36.59 12.031C37.6756 11.7704 39.0166 11.6401 40.613 11.6401H58.5568Z" fill="white"/>
<path d="M87.1009 11.6401C88.6974 11.6401 90.0384 11.7704 91.1239 12.0309C92.2095 12.2915 93.1035 12.7476 93.7421 13.3339C94.3806 13.9202 94.8276 14.7019 95.1469 15.614C95.4662 16.5261 95.5939 17.6335 95.5939 18.9365V28.5782C95.5939 29.1645 95.5301 29.6205 95.4662 30.0114C95.4023 30.4023 95.2108 30.6629 95.0192 30.9234C94.8276 31.1189 94.5722 31.3143 94.2529 31.3795C93.9336 31.4446 93.4866 31.5098 92.9758 31.5098H75.9898C74.9681 31.5098 74.0741 31.3795 73.3717 31.184C72.6693 30.9886 72.0946 30.6629 71.7114 30.272C71.2644 29.8811 71.009 29.3599 70.8174 28.7085C70.6258 28.057 70.562 27.2752 70.562 26.3632V24.6042C70.562 23.8876 70.6258 23.171 70.8174 22.5847C71.009 21.9984 71.2644 21.4772 71.7114 21.0863C72.1584 20.6954 72.6693 20.3697 73.3717 20.1743C74.0741 19.9788 74.9681 19.8485 75.9898 19.8485H90.4215V19.1319C90.4215 18.5456 90.3576 18.0896 90.2299 17.6335C90.1022 17.2427 89.9106 16.9169 89.6552 16.6563C89.3998 16.3958 88.9528 16.2003 88.5058 16.07C87.9949 15.9397 87.3564 15.8746 86.5901 15.8746H71.7753C71.3283 15.8746 71.1367 15.6791 71.1367 15.2231V12.1612C71.1367 11.7052 71.3283 11.5098 71.7753 11.5098H87.1009V11.6401ZM89.3998 27.5358C89.7829 27.5358 90.0384 27.4707 90.1661 27.2752C90.2938 27.0798 90.4215 26.7541 90.4215 26.298V23.1059H77.4585C76.7561 23.1059 76.1814 23.2362 75.926 23.5619C75.6067 23.8876 75.479 24.2785 75.479 24.8648V25.6466C75.479 26.298 75.6067 26.7541 75.926 27.0798C76.2453 27.4055 76.7561 27.5358 77.4585 27.5358H89.3998Z" fill="white"/>
<path d="M117.561 11.6401C118.008 11.6401 118.199 11.8355 118.199 12.2915V15.3534C118.199 15.8095 118.008 16.0049 117.561 16.0049H108.11C107.344 16.0049 106.705 16.07 106.258 16.2003C105.747 16.3306 105.364 16.5261 105.045 16.8518C104.725 17.1775 104.534 17.5684 104.406 18.0896C104.278 18.6108 104.215 19.2622 104.215 19.9788V30.728C104.215 31.2492 103.959 31.5098 103.448 31.5098H100C99.4253 31.5098 99.1699 31.2492 99.1699 30.728V19.0016C99.1699 17.6987 99.2976 16.5912 99.6169 15.6792C99.9361 14.7671 100.383 13.9854 101.022 13.399C101.66 12.8127 102.554 12.3567 103.64 12.0961C104.725 11.8355 106.066 11.7052 107.663 11.7052H117.561V11.6401Z" fill="white"/>
<path d="M124.074 11.64V6.8843C124.074 6.36313 124.329 6.10254 124.84 6.10254H128.352C128.863 6.10254 129.119 6.36313 129.119 6.8843V11.64H135.313C135.76 11.64 135.951 11.8354 135.951 12.2914V15.223C135.951 15.679 135.76 15.8745 135.313 15.8745H129.119V24.2784C129.119 25.3207 129.31 26.0374 129.693 26.4934C130.077 26.9494 130.907 27.21 132.056 27.21H135.504C135.951 27.21 136.143 27.4054 136.143 27.8615V30.7931C136.143 31.2491 135.951 31.4445 135.504 31.4445H131.226C129.821 31.4445 128.608 31.3142 127.714 31.0536C126.82 30.7931 126.054 30.337 125.479 29.8159C124.904 29.2947 124.521 28.5129 124.329 27.6009C124.138 26.6888 124.01 25.5813 124.01 24.3435V15.8745H120.626C120.179 15.8745 119.987 15.679 119.987 15.223V12.2914C119.987 11.8354 120.179 11.64 120.626 11.64H124.074Z" fill="white"/>
<path opacity="0.8" d="M142.656 6.16789C142.912 6.16789 143.04 6.29818 143.167 6.62391L148.914 26.0376C148.914 26.233 149.042 26.2982 149.17 26.2982H149.361C149.489 26.2982 149.617 26.233 149.617 26.0376L155.364 8.18743C155.619 7.34053 155.939 6.81935 156.386 6.49362C156.833 6.23304 157.344 6.0376 157.982 6.0376H161.494C162.26 6.0376 162.899 6.16789 163.282 6.49362C163.665 6.81935 164.048 7.34053 164.304 8.12229L170.179 25.9724C170.243 26.1679 170.306 26.233 170.434 26.233H170.626C170.753 26.233 170.881 26.1679 170.881 25.9724L176.501 6.55877C176.564 6.36333 176.628 6.23304 176.756 6.16789C176.884 6.10274 176.948 6.10274 177.075 6.10274H181.865C182.056 6.10274 182.184 6.16789 182.184 6.36333C182.248 6.55877 182.184 6.75421 182.12 6.94965L175.287 28.6434C174.968 29.7509 174.585 30.4675 174.202 30.8584C173.819 31.2493 173.244 31.4447 172.541 31.4447H168.391C167.688 31.4447 167.177 31.2493 166.794 30.8584C166.411 30.4675 166.028 29.7509 165.709 28.7086L160.217 11.575C160.217 11.3796 160.089 11.3144 159.962 11.3144H159.834C159.642 11.3144 159.579 11.3796 159.579 11.575L153.895 28.7086C153.512 29.7509 153.193 30.4675 152.81 30.8584C152.427 31.2493 151.852 31.4447 151.213 31.4447H147.19C146.807 31.4447 146.424 31.3796 146.169 31.3144C145.849 31.2493 145.594 31.119 145.402 30.9236C145.147 30.7281 144.955 30.4675 144.764 30.0767C144.572 29.6858 144.444 29.2298 144.253 28.7086L137.612 7.01479C137.548 6.75421 137.548 6.55877 137.548 6.42848C137.612 6.29818 137.676 6.16789 137.867 6.16789H142.656Z" fill="white"/>
<path opacity="0.8" d="M201.213 11.6401C202.81 11.6401 204.151 11.7704 205.236 12.031C206.322 12.2915 207.216 12.7476 207.854 13.3339C208.493 13.9202 208.94 14.702 209.259 15.614C209.515 16.5261 209.706 17.6336 209.706 18.9365V24.1482C209.706 25.4511 209.579 26.5586 209.259 27.4707C209.004 28.3827 208.493 29.1645 207.854 29.7508C207.216 30.3371 206.322 30.7932 205.236 31.0538C204.151 31.3143 202.81 31.4446 201.213 31.4446H191.188C189.591 31.4446 188.25 31.3143 187.165 31.0538C186.079 30.7932 185.249 30.3371 184.61 29.7508C183.972 29.1645 183.525 28.3827 183.206 27.4707C182.95 26.5586 182.759 25.4511 182.759 24.1482V18.9365C182.759 17.6336 182.886 16.5261 183.206 15.614C183.461 14.702 183.972 13.9202 184.61 13.3339C185.249 12.7476 186.143 12.2915 187.165 12.031C188.25 11.7704 189.591 11.6401 191.188 11.6401H201.213ZM187.803 23.3013C187.803 24.0831 187.867 24.7345 187.995 25.1906C188.123 25.7117 188.314 26.1026 188.633 26.4283C188.953 26.7541 189.336 26.9495 189.847 27.0798C190.358 27.2101 190.996 27.2753 191.699 27.2753H200.702C201.469 27.2753 202.107 27.2101 202.618 27.0798C203.129 26.9495 203.512 26.7541 203.831 26.4283C204.151 26.1026 204.342 25.7117 204.47 25.1906C204.598 24.6694 204.662 24.0179 204.662 23.3013V19.8485C204.662 19.1319 204.598 18.4805 204.47 17.9593C204.342 17.4381 204.151 17.0472 203.831 16.7215C203.512 16.3958 203.129 16.2003 202.618 16.07C202.107 15.9397 201.469 15.8746 200.702 15.8746H191.699C190.932 15.8746 190.294 15.9397 189.847 16.07C189.336 16.2003 188.953 16.3958 188.633 16.7215C188.314 17.0472 188.123 17.4381 187.995 17.9593C187.867 18.4805 187.803 19.0668 187.803 19.8485V23.3013Z" fill="white"/>
<path opacity="0.8" d="M232.056 11.6401C232.503 11.6401 232.695 11.8355 232.695 12.2915V15.3534C232.695 15.8095 232.503 16.0049 232.056 16.0049H222.605C221.839 16.0049 221.201 16.07 220.754 16.2003C220.243 16.3306 219.86 16.5261 219.54 16.8518C219.221 17.1775 219.029 17.5684 218.902 18.0896C218.774 18.6108 218.71 19.2622 218.71 19.9788V30.728C218.71 31.2492 218.455 31.5098 217.944 31.5098H214.496C213.921 31.5098 213.665 31.2492 213.665 30.728V19.0016C213.665 17.6987 213.793 16.5912 214.112 15.6792C214.368 14.7671 214.879 13.9854 215.517 13.399C216.156 12.8127 217.05 12.3567 218.072 12.0961C219.157 11.8355 220.498 11.7052 222.095 11.7052H232.056V11.6401Z" fill="white"/>
<path opacity="0.8" d="M239.783 4.34375C240.294 4.34375 240.549 4.60433 240.549 5.12551V19.4578H247.063C247.573 19.4578 247.957 19.4578 248.34 19.3926C248.659 19.3275 248.978 19.2623 249.234 19.1972C249.489 19.0669 249.745 18.9366 249.936 18.7412C250.128 18.5457 250.383 18.2851 250.575 17.9594L254.534 12.2265C254.662 12.0311 254.853 11.8356 254.981 11.7705C255.109 11.7053 255.364 11.6402 255.619 11.6402H259.642C259.898 11.6402 260.089 11.7705 260.153 11.9659C260.217 12.1613 260.153 12.4219 260.026 12.6174L255.428 19.0017C254.725 19.9789 253.959 20.7607 253.257 21.347C254.215 21.9333 255.045 22.6499 255.747 23.6923L260.792 30.663C260.92 30.8584 260.983 31.0539 260.856 31.2493C260.792 31.4447 260.6 31.575 260.345 31.575H256.386C256.066 31.575 255.875 31.5099 255.683 31.4447C255.556 31.3796 255.428 31.2493 255.236 31.0539L250.894 24.9952C250.447 24.4089 250 24.018 249.553 23.8226C249.042 23.6271 248.34 23.4969 247.382 23.4969H240.549V30.7933C240.549 31.3144 240.294 31.575 239.783 31.575H236.271C235.696 31.575 235.441 31.3144 235.441 30.7933V5.19065C235.441 4.66948 235.696 4.40889 236.271 4.40889H239.783V4.34375Z" fill="white"/>
<path opacity="0.8" d="M267.944 4.27856C268.455 4.27856 268.71 4.53915 268.71 5.06032V8.51309C268.71 9.09941 268.455 9.36 267.944 9.36H264.496C263.921 9.36 263.665 9.09941 263.665 8.51309V5.12547C263.665 4.6043 263.921 4.34371 264.496 4.34371H267.944V4.27856ZM267.944 11.6402C268.455 11.6402 268.71 11.9008 268.71 12.4871V30.7281C268.71 31.2493 268.455 31.5099 267.944 31.5099H264.496C263.985 31.5099 263.729 31.2493 263.729 30.7281V12.4871C263.729 11.9008 263.985 11.6402 264.496 11.6402H267.944Z" fill="white"/>
<path opacity="0.8" d="M291.699 11.6401C293.295 11.6401 294.636 11.7704 295.722 12.031C296.807 12.2915 297.701 12.7476 298.34 13.3339C298.978 13.9202 299.425 14.702 299.745 15.614C300 16.5261 300.192 17.6336 300.192 18.9365V30.6629C300.192 31.184 299.936 31.4446 299.425 31.4446H295.977C295.466 31.4446 295.211 31.184 295.211 30.6629V20.1743C295.211 19.4577 295.147 18.8062 295.083 18.285C295.019 17.7639 294.828 17.373 294.508 17.0472C294.253 16.7215 293.87 16.5261 293.423 16.3958C292.976 16.2655 292.337 16.2003 291.571 16.2003H282.12C281.354 16.2003 280.715 16.2655 280.268 16.3958C279.757 16.5261 279.374 16.7215 279.055 17.0472C278.736 17.373 278.544 17.7639 278.416 18.285C278.289 18.8062 278.225 19.4577 278.225 20.1743V30.6629C278.225 31.184 277.969 31.4446 277.458 31.4446H273.946C273.372 31.4446 273.116 31.184 273.116 30.6629V18.9365C273.116 17.6336 273.244 16.5261 273.563 15.614C273.819 14.702 274.329 13.9202 274.968 13.3339C275.607 12.7476 276.501 12.2915 277.522 12.031C278.608 11.7704 279.949 11.6401 281.545 11.6401H291.699Z" fill="white"/>
<path opacity="0.8" d="M322.542 11.6401C324.138 11.6401 325.479 11.7704 326.564 12.031C327.65 12.2915 328.48 12.7476 329.183 13.3339C329.821 13.9202 330.332 14.6368 330.587 15.614C330.843 16.5261 330.971 17.6336 330.971 18.9365V32.0961C330.971 33.399 330.843 34.5717 330.587 35.4837C330.332 36.3958 329.821 37.1775 329.183 37.7639C328.544 38.3502 327.65 38.8062 326.564 39.0668C325.479 39.3274 324.138 39.4577 322.542 39.4577H305.875C305.428 39.4577 305.236 39.2622 305.236 38.8062V35.7443C305.236 35.2883 305.428 35.0928 305.875 35.0928H322.095C322.861 35.0928 323.499 35.0277 324.01 34.8974C324.521 34.7671 324.904 34.5717 325.223 34.2459C325.543 33.9202 325.734 33.5293 325.862 33.0082C325.99 32.487 326.054 31.8355 326.054 31.0538V30.1417H312.708C311.111 30.1417 309.77 30.0114 308.685 29.7508C307.599 29.4902 306.769 29.0342 306.13 28.4479C305.492 27.8616 305.045 27.0798 304.725 26.1678C304.47 25.2557 304.278 24.0831 304.278 22.7801V19.0016C304.278 17.6987 304.406 16.5261 304.725 15.614C304.981 14.702 305.492 13.9202 306.13 13.3339C306.769 12.7476 307.663 12.2915 308.685 12.031C309.77 11.7704 311.111 11.6401 312.708 11.6401H322.542ZM309.259 22.7801C309.259 23.4316 309.323 23.9528 309.451 24.3437C309.579 24.7345 309.77 25.1254 310.089 25.386C310.409 25.6466 310.792 25.842 311.303 25.9723C311.814 26.1026 312.452 26.1678 313.155 26.1678H325.99V19.3925C325.99 18.0896 325.734 17.2427 325.223 16.6564C324.713 16.1352 323.627 15.8746 322.095 15.8746H313.155C312.388 15.8746 311.75 15.9397 311.303 16.07C310.792 16.2003 310.409 16.3958 310.089 16.6564C309.77 16.9169 309.579 17.3078 309.451 17.6987C309.323 18.1547 309.259 18.6759 309.259 19.2622V22.7801Z" fill="white"/>
</svg>
